<?xml version="1.0" encoding="UTF-8" standalone="no"?>
<!-- Generator: Adobe Illustrator 20.0.0, SVG Export Plug-In . SVG Version: 6.00 Build 0)  -->

<svg
   version="1.1"
   id="Layer_1"
   x="0px"
   y="0px"
   viewBox="0 0 600 150"
   xml:space="preserve"
   sodipodi:docname="dropbox.svg"
   width="600"
   height="150"
   inkscape:version="1.1 (c68e22c387, 2021-05-23)"
   xmlns:inkscape="http://www.inkscape.org/namespaces/inkscape"
   xmlns:sodipodi="http://sodipodi.sourceforge.net/DTD/sodipodi-0.dtd"
   xmlns="http://www.w3.org/2000/svg"
   xmlns:svg="http://www.w3.org/2000/svg"><defs
   id="defs1864" /><sodipodi:namedview
   id="namedview1862"
   pagecolor="#ffffff"
   bordercolor="#666666"
   borderopacity="1.0"
   inkscape:pageshadow="2"
   inkscape:pageopacity="0.0"
   inkscape:pagecheckerboard="0"
   showgrid="false"
   width="600px"
   inkscape:zoom="1.591"
   inkscape:cx="313.95349"
   inkscape:cy="98.365808"
   inkscape:window-width="1920"
   inkscape:window-height="1051"
   inkscape:window-x="-9"
   inkscape:window-y="-9"
   inkscape:window-maximized="1"
   inkscape:current-layer="Layer_1" />
<style
   type="text/css"
   id="style1848">
	.st0{fill:#0061FF;}
	.st1{display:none;}
	.st2{display:inline;}
	.st3{fill:none;}
</style>
<path
   class="st0"
   d="M 69.6,38.13 34.8,60.33 69.6,82.53 34.8,104.73 0,82.41 34.8,60.21 0,38.13 34.8,15.93 Z m -34.98,73.74 34.8,-22.2 34.8,22.2 -34.8,22.2 z M 69.6,82.41 104.4,60.21 69.6,38.13 l 34.62,-22.2 34.8,22.2 -34.8,22.2 34.8,22.2 -34.8,22.2 z"
   id="path1850"
   style="stroke-width:0.6;fill:#4d4d4d;fill-opacity:1" />
<path
   d="m 166.32,30.69 h 28.14 c 17.94,0 32.76,10.38 32.76,34.08 v 4.98 c 0,23.88 -13.86,34.62 -32.22,34.62 h -28.68 z m 15.72,13.38 v 46.86 h 12.06 c 10.2,0 17.04,-6.66 17.04,-21.48 v -3.9 c 0,-14.82 -7.2,-21.48 -17.58,-21.48 z m 53.52,0.72 h 12.6 l 2.04,13.86 c 2.4,-9.42 8.52,-14.46 19.62,-14.46 h 3.9 v 15.9 h -6.48 c -12.78,0 -15.9,4.44 -15.9,17.04 v 27.42 H 235.8 V 44.79 Z m 41.28,31.08 v -1.68 c 0,-19.98 12.78,-30.9 30.18,-30.9 17.76,0 30.18,10.92 30.18,30.9 v 1.68 c 0,19.62 -12.06,30.18 -30.18,30.18 -19.26,-0.18 -30.18,-10.5 -30.18,-30.18 z m 44.46,-0.18 v -1.5 c 0,-11.1 -5.58,-17.76 -14.46,-17.76 -8.7,0 -14.46,6.12 -14.46,17.76 v 1.5 c 0,10.74 5.58,16.86 14.46,16.86 8.88,-0.18 14.46,-6.12 14.46,-16.86 z m 24.06,-30.9 h 12.96 l 1.5,11.28 c 3.12,-7.56 9.78,-12.78 19.62,-12.78 15.18,0 25.2,10.92 25.2,31.14 v 1.68 c 0,19.62 -11.1,30 -25.2,30 -9.42,0 -15.9,-4.26 -19.08,-11.1 v 30.18 h -15.18 z m 43.5,30.9 v -1.32 c 0,-11.88 -6.12,-17.76 -14.28,-17.76 -8.7,0 -14.46,6.66 -14.46,17.76 v 1.14 c 0,10.56 5.58,17.22 14.28,17.22 8.94,-0.18 14.46,-5.88 14.46,-17.04 z m 38.76,17.82 -1.32,10.92 H 412.98 V 24.81 h 15.18 v 30.54 c 3.36,-7.8 10.02,-12.06 19.44,-12.06 14.28,0.18 24.84,10.02 24.84,29.82 v 1.86 c 0,19.8 -10.02,31.14 -25.2,31.14 -10.02,-0.24 -16.5,-4.86 -19.62,-12.6 z m 28.86,-18.54 v -1.5 c 0,-10.92 -5.94,-17.04 -14.28,-17.04 -8.52,0 -14.46,6.84 -14.46,17.22 v 1.32 c 0,11.1 5.76,17.58 14.28,17.58 9.12,0 14.46,-5.7 14.46,-17.58 z m 22.62,0.9 v -1.68 c 0,-19.98 12.78,-30.9 30.18,-30.9 17.76,0 30.18,10.92 30.18,30.9 v 1.68 c 0,19.62 -12.24,30.18 -30.18,30.18 -19.26,-0.18 -30.18,-10.5 -30.18,-30.18 z m 44.58,-0.18 v -1.5 c 0,-11.1 -5.58,-17.76 -14.46,-17.76 -8.7,0 -14.46,6.12 -14.46,17.76 v 1.5 c 0,10.74 5.58,16.86 14.46,16.86 8.94,-0.18 14.46,-6.12 14.46,-16.86 z M 559.8,73.47 538.86,44.79 h 17.94 l 12.06,17.94 12.24,-17.94 h 17.76 l -21.24,28.5 22.38,31.14 h -17.58 l -13.68,-19.8 -13.32,19.8 h -18.36 z"
   id="path1852"
   style="stroke-width:0.6;fill:#4d4d4d;fill-opacity:1" />
<g
   id="Editble"
   class="st1">
	<g
   class="st2"
   id="g1858">
		<rect
   x="233"
   y="71.599998"
   class="st3"
   width="506"
   height="71.800003"
   id="rect1854" />
		<path
   d="m 338.2,80.2 h 16.3 c 10.4,0 19,6.1 19,19.8 v 2.9 c 0,13.8 -8,20 -18.7,20 h -16.6 z m 9.2,7.7 v 27.2 h 7 c 5.9,0 9.9,-3.9 9.9,-12.5 v -2.2 c 0,-8.6 -4.1,-12.5 -10.2,-12.5 z m 31,0.5 h 7.3 l 1.1,8 c 1.4,-5.5 4.9,-8.3 11.3,-8.3 h 2.2 v 9.2 h -3.7 c -7.4,0 -9.2,2.6 -9.2,9.9 V 123 h -9 c 0,0 0,-34.6 0,-34.6 z m 23.9,18 v -1 c 0,-11.6 7.4,-17.9 17.5,-17.9 10.3,0 17.5,6.4 17.5,17.9 v 1 c 0,11.4 -7,17.5 -17.5,17.5 -11.2,0 -17.5,-6.1 -17.5,-17.5 z m 25.8,-0.1 v -0.8 c 0,-6.5 -3.2,-10.3 -8.3,-10.3 -5,0 -8.4,3.5 -8.4,10.3 v 0.8 c 0,6.2 3.2,9.7 8.3,9.7 5.2,0 8.4,-3.4 8.4,-9.7 z M 442,88.4 h 7.6 l 0.9,6.6 c 1.9,-4.4 5.7,-7.4 11.4,-7.4 8.8,0 14.6,6.4 14.6,18 v 1 c 0,11.4 -6.4,17.3 -14.6,17.3 -5.5,0 -9.2,-2.5 -11,-6.5 v 17.5 H 442 Z m 25.3,18 v -0.8 c 0,-6.9 -3.5,-10.3 -8.3,-10.3 -5,0 -8.4,3.8 -8.4,10.3 v 0.7 c 0,6.1 3.2,10 8.2,10 5.2,-0.2 8.5,-3.6 8.5,-9.9 z m 22.4,10.3 -0.7,6.3 h -7.8 V 76.8 h 8.8 v 17.8 c 1.9,-4.5 5.8,-7 11.2,-7 8.2,0.1 14.3,5.8 14.3,17.3 v 1 c 0,11.5 -5.8,18 -14.6,18 -5.6,0 -9.4,-2.8 -11.2,-7.2 z m 16.8,-10.8 v -0.8 c 0,-6.4 -3.5,-9.8 -8.3,-9.8 -5,0 -8.4,4 -8.4,10 v 0.7 c 0,6.5 3.3,10.2 8.3,10.2 5.2,-0.1 8.4,-3.5 8.4,-10.3 z m 13.1,0.5 v -1 c 0,-11.6 7.4,-17.9 17.5,-17.9 10.3,0 17.5,6.4 17.5,17.9 v 1 c 0,11.4 -7.1,17.5 -17.5,17.5 -11.2,0 -17.5,-6.1 -17.5,-17.5 z m 25.8,-0.1 v -0.8 c 0,-6.5 -3.2,-10.3 -8.3,-10.3 -5,0 -8.4,3.5 -8.4,10.3 v 0.8 c 0,6.2 3.2,9.7 8.3,9.7 5.2,0 8.4,-3.4 8.4,-9.7 z M 566.3,105 554.2,88.3 h 10.4 l 7,10.4 7.1,-10.4 H 589 l -12.3,16.6 13,18 h -10.2 l -8,-11.5 -7.7,11.5 h -10.6 z"
   id="path1856" />
	</g>
</g>
</svg>
