<?xml version="1.0" encoding="UTF-8" standalone="no"?>
<!-- Generator: Adobe Illustrator 19.0.0, SVG Export Plug-In . SVG Version: 6.00 Build 0)  -->

<svg
   version="1.1"
   id="Layer_1"
   x="0px"
   y="0px"
   viewBox="0 0 382 382"
   style="enable-background:new 0 0 382 382;"
   xml:space="preserve"
   sodipodi:docname="linkedin-2.svg"
   inkscape:version="1.1 (c68e22c387, 2021-05-23)"
   xmlns:inkscape="http://www.inkscape.org/namespaces/inkscape"
   xmlns:sodipodi="http://sodipodi.sourceforge.net/DTD/sodipodi-0.dtd"
   xmlns="http://www.w3.org/2000/svg"
   xmlns:svg="http://www.w3.org/2000/svg"><defs
   id="defs21" /><sodipodi:namedview
   id="namedview19"
   pagecolor="#ffffff"
   bordercolor="#666666"
   borderopacity="1.0"
   inkscape:pageshadow="2"
   inkscape:pageopacity="0.0"
   inkscape:pagecheckerboard="0"
   showgrid="false"
   inkscape:zoom="2.0968586"
   inkscape:cx="191.4769"
   inkscape:cy="191"
   inkscape:window-width="1920"
   inkscape:window-height="1051"
   inkscape:window-x="-9"
   inkscape:window-y="-9"
   inkscape:window-maximized="1"
   inkscape:current-layer="layer1" />

<g
   inkscape:groupmode="layer"
   id="layer2"
   inkscape:label="Layer 2"><rect
     style="fill:#ffffff;fill-rule:evenodd;stroke-width:1.08715;fill-opacity:1"
     id="rect364"
     width="333.8327"
     height="330.49438"
     x="24.799002"
     y="33.860176" /></g><g
   inkscape:groupmode="layer"
   id="layer1"
   inkscape:label="Layer 1"
   style="display:inline"><g
     id="g1390"><path
       style="fill:#0077b7"
       d="M 347.445,0 H 34.555 C 15.471,0 0,15.471 0,34.555 V 347.444 C 0,366.529 15.471,382 34.555,382 H 347.444 C 366.529,382 382,366.529 382,347.444 V 34.555 C 382,15.471 366.529,0 347.445,0 Z M 118.207,329.844 c 0,5.554 -4.502,10.056 -10.056,10.056 H 65.345 c -5.554,0 -10.056,-4.502 -10.056,-10.056 V 150.403 c 0,-5.554 4.502,-10.056 10.056,-10.056 h 42.806 c 5.554,0 10.056,4.502 10.056,10.056 z M 86.748,123.432 c -22.459,0 -40.666,-18.207 -40.666,-40.666 0,-22.459 18.207,-40.666 40.666,-40.666 22.459,0 40.666,18.207 40.666,40.666 0,22.459 -18.206,40.666 -40.666,40.666 z M 341.91,330.654 c 0,5.106 -4.14,9.246 -9.246,9.246 H 286.73 c -5.106,0 -9.246,-4.14 -9.246,-9.246 v -84.168 c 0,-12.556 3.683,-55.021 -32.813,-55.021 -28.309,0 -34.051,29.066 -35.204,42.11 v 97.079 c 0,5.106 -4.139,9.246 -9.246,9.246 h -44.426 c -5.106,0 -9.246,-4.14 -9.246,-9.246 V 149.593 c 0,-5.106 4.14,-9.246 9.246,-9.246 h 44.426 c 5.106,0 9.246,4.14 9.246,9.246 v 15.655 c 10.497,-15.753 26.097,-27.912 59.312,-27.912 73.552,0 73.131,68.716 73.131,106.472 z"
       id="path16" /></g></g></svg>
