<svg xmlns="http://www.w3.org/2000/svg" width="359" height="115" viewBox="0 0 359 115">
  <defs>
    <style>
      .cls-1 {
        fill: #fff700;
        fill-rule: evenodd;
      }
    </style>
  </defs>
  <path id="Capital_Group" data-name="Capital Group" class="cls-1" d="M60.322,106.215a14.379,14.379,0,0,0,4.014-1.738V97.953H60.624L60.1,101.938a10.066,10.066,0,0,1-2.217.791,10.86,10.86,0,0,1-2.549.3,8.118,8.118,0,0,1-4.561-1.25,7.939,7.939,0,0,1-2.92-3.584,13.915,13.915,0,0,1-1.016-5.576V91.859a14.245,14.245,0,0,1,.957-5.449A8.032,8.032,0,0,1,50.575,82.8a7.406,7.406,0,0,1,4.385-1.289,10.873,10.873,0,0,1,2.022.176,8.332,8.332,0,0,1,1.709.508,7.224,7.224,0,0,1,1.426.8l0.508,4.395h3.75V80.824a13.077,13.077,0,0,0-4.219-2.363,15.939,15.939,0,0,0-5.254-.84,12.71,12.71,0,0,0-6.953,1.846,12.141,12.141,0,0,0-4.473,5.059A16.654,16.654,0,0,0,41.913,91.9v0.723a16.8,16.8,0,0,0,1.572,7.471,11.68,11.68,0,0,0,4.551,5,13.7,13.7,0,0,0,7.178,1.787A18.915,18.915,0,0,0,60.322,106.215Zm20.558-.186a8.735,8.735,0,0,0,2.549-2.177,9.956,9.956,0,0,0,.244,1.289q0.166,0.643.361,1.328H90.46v-3.008l-2.148-.273q-0.039-.391-0.049-0.8t-0.01-.84V92.231a6.564,6.564,0,0,0-2.315-5.4A9.756,9.756,0,0,0,79.6,84.945a14.292,14.292,0,0,0-4.258.6,13.957,13.957,0,0,0-3.477,1.611l0.039,5.215h3.613l0.449-2.852a5.093,5.093,0,0,1,1.5-.752,6.458,6.458,0,0,1,1.934-.264,3.978,3.978,0,0,1,2.92,1,3.6,3.6,0,0,1,1.006,2.676v1.777H80.109a13.708,13.708,0,0,0-5.117.85,7.121,7.121,0,0,0-3.2,2.353,5.786,5.786,0,0,0-1.094,3.5,5.915,5.915,0,0,0,1.8,4.571,7.117,7.117,0,0,0,5.02,1.66A6.688,6.688,0,0,0,80.88,106.029Zm-4.5-3.623a2.347,2.347,0,0,1-.781-1.894,3.149,3.149,0,0,1,1.123-2.393,4.787,4.787,0,0,1,3.33-1.025h3.281v3.535a4.928,4.928,0,0,1-1.934,1.748,5.768,5.768,0,0,1-2.773.693A3.373,3.373,0,0,1,76.378,102.406Zm27.934,12.188v-3.028l-3.008-.586v-6.6a6.409,6.409,0,0,0,2.344,1.865,8.221,8.221,0,0,0,7.588-.654,8.176,8.176,0,0,0,2.8-3.6,13.809,13.809,0,0,0,.977-5.4v-0.41a16.415,16.415,0,0,0-.967-5.9,8.749,8.749,0,0,0-2.8-3.926,7.045,7.045,0,0,0-4.414-1.406,6.943,6.943,0,0,0-3.32.752,6.841,6.841,0,0,0-2.383,2.139l-0.312-2.5H93.3v3.027L96.4,88.949V110.98l-2.852.586v3.028h10.762Zm-1.387-12.08a4.425,4.425,0,0,1-1.621-1.651V91.176a4.63,4.63,0,0,1,1.631-1.728,4.455,4.455,0,0,1,2.373-.615,3.941,3.941,0,0,1,2.685.928,5.507,5.507,0,0,1,1.582,2.578,12.855,12.855,0,0,1,.518,3.838v0.41a8.543,8.543,0,0,1-1.162,4.717,3.977,3.977,0,0,1-3.584,1.787A4.763,4.763,0,0,1,102.925,102.514Zm28.43,3.955v-3.008l-2.911-.586V85.336h-8.027v3.027l3.106,0.586v13.926l-2.93.586v3.008h10.762Zm-2.911-25.918V76h-5.117v4.551h5.117Zm17.206,26.113a15.525,15.525,0,0,0,1.962-.43l-0.507-3.457q-0.411.1-1.084,0.2a8.609,8.609,0,0,1-1.221.1,1.94,1.94,0,0,1-1.514-.615,2.873,2.873,0,0,1-.556-1.963V88.852h4.179V85.336H142.73V80.2h-4.9v5.137h-3.086v3.516h3.086v11.64q0,3.321,1.5,4.834a5.657,5.657,0,0,0,4.2,1.514A13.516,13.516,0,0,0,145.65,106.664Zm16.589-.635a8.721,8.721,0,0,0,2.549-2.177,10.11,10.11,0,0,0,.244,1.289q0.166,0.643.362,1.328h6.425v-3.008l-2.148-.273q-0.039-.391-0.049-0.8c-0.006-.274-0.01-0.554-0.01-0.84V92.231a6.564,6.564,0,0,0-2.314-5.4,9.757,9.757,0,0,0-6.338-1.885,14.3,14.3,0,0,0-4.258.6,13.949,13.949,0,0,0-3.476,1.611l0.039,5.215h3.613l0.449-2.852a5.1,5.1,0,0,1,1.5-.752,6.459,6.459,0,0,1,1.934-.264,3.979,3.979,0,0,1,2.92,1,3.6,3.6,0,0,1,1.006,2.676v1.777h-3.223a13.707,13.707,0,0,0-5.117.85,7.116,7.116,0,0,0-3.2,2.353,5.782,5.782,0,0,0-1.094,3.5,5.915,5.915,0,0,0,1.8,4.571,7.117,7.117,0,0,0,5.019,1.66A6.688,6.688,0,0,0,162.239,106.029Zm-4.5-3.623a2.35,2.35,0,0,1-.781-1.894,3.148,3.148,0,0,1,1.123-2.393,4.788,4.788,0,0,1,3.33-1.025h3.282v3.535a4.934,4.934,0,0,1-1.934,1.748,5.766,5.766,0,0,1-2.773.693A3.376,3.376,0,0,1,157.737,102.406Zm28.032,4.063v-3.008l-2.95-.586V76h-8.027v3.027l3.125,0.586v23.262l-2.949.586v3.008h10.8Zm31.22-.469a14.378,14.378,0,0,0,4.131-2.148V92.563h-9.57v3.5l4.648,0.273v5.606a10.092,10.092,0,0,1-2.216.781,12.916,12.916,0,0,1-3,.312,7.5,7.5,0,0,1-7.373-4.844,13.907,13.907,0,0,1-.967-5.41v-0.8a13.9,13.9,0,0,1,1.006-5.5,8.531,8.531,0,0,1,2.832-3.672,7.034,7.034,0,0,1,4.228-1.318,11.528,11.528,0,0,1,3.086.371,6.577,6.577,0,0,1,2.188,1.016l0.625,3.945h3.769V80.746A13.115,13.115,0,0,0,216,78.432a18.719,18.719,0,0,0-5.7-.811,11.913,11.913,0,0,0-6.6,1.826,12.236,12.236,0,0,0-4.4,5.059,16.978,16.978,0,0,0-1.572,7.51v0.762a16.276,16.276,0,0,0,1.582,7.354,11.855,11.855,0,0,0,4.531,4.961,13.355,13.355,0,0,0,7.051,1.787A18.573,18.573,0,0,0,216.989,106Zm21.467,0.469v-3.008l-2.929-.586V91.859a4.788,4.788,0,0,1,1.455-1.68,3.429,3.429,0,0,1,2.216-.527l2.754,0.156,0.567-4.551a8,8,0,0,0-1.006-.215,7.444,7.444,0,0,0-1.162-.1,4.7,4.7,0,0,0-2.862.9,7.021,7.021,0,0,0-2.06,2.578l-0.039-.43-0.254-2.656h-7.617v3.027l3.086,0.586v13.926l-2.93.586v3.008h10.781Zm23.1-.957a8.981,8.981,0,0,0,3.349-3.8,12.729,12.729,0,0,0,1.172-5.6v-0.41a12.666,12.666,0,0,0-1.172-5.586,9.03,9.03,0,0,0-3.359-3.8,9.622,9.622,0,0,0-5.234-1.377,9.5,9.5,0,0,0-5.2,1.387,9.1,9.1,0,0,0-3.359,3.809,12.633,12.633,0,0,0-1.172,5.566v0.41a12.744,12.744,0,0,0,1.172,5.6,8.957,8.957,0,0,0,3.359,3.8A10.65,10.65,0,0,0,261.56,105.512Zm-7.93-3.311a5.174,5.174,0,0,1-1.6-2.461,11.585,11.585,0,0,1-.517-3.623v-0.41a11.426,11.426,0,0,1,.517-3.594,5.283,5.283,0,0,1,1.592-2.461,4.061,4.061,0,0,1,2.7-.9,4.119,4.119,0,0,1,2.734.9,5.352,5.352,0,0,1,1.6,2.461,11.244,11.244,0,0,1,.527,3.594v0.41a11.4,11.4,0,0,1-.527,3.623,5.317,5.317,0,0,1-1.592,2.461,4.077,4.077,0,0,1-2.7.889A4.154,4.154,0,0,1,253.63,102.2Zm29.773,3.828a6.943,6.943,0,0,0,2.53-2.431l0.332,2.871h6.855v-3.008l-2.5-.586V85.336h-7.578v3.027l2.656,0.586v11.6a4.665,4.665,0,0,1-1.787,1.806,5.449,5.449,0,0,1-2.724.635,3.21,3.21,0,0,1-2.686-1.1,6.373,6.373,0,0,1-.869-3.838V85.336h-7.305v3.027l2.383,0.586v9.063q0,4.551,1.9,6.709a6.7,6.7,0,0,0,5.3,2.158A7.064,7.064,0,0,0,283.4,106.029Zm24.491,8.565v-3.028l-3.008-.586v-6.6a6.409,6.409,0,0,0,2.344,1.865,8.221,8.221,0,0,0,7.588-.654,8.176,8.176,0,0,0,2.8-3.6,13.809,13.809,0,0,0,.977-5.4v-0.41a16.415,16.415,0,0,0-.967-5.9,8.742,8.742,0,0,0-2.8-3.926,7.045,7.045,0,0,0-4.414-1.406,6.943,6.943,0,0,0-3.32.752,6.841,6.841,0,0,0-2.383,2.139l-0.312-2.5h-7.52v3.027l3.106,0.586V110.98l-2.852.586v3.028h10.762Zm-1.387-12.08a4.425,4.425,0,0,1-1.621-1.651V91.176a4.63,4.63,0,0,1,1.631-1.728,4.455,4.455,0,0,1,2.373-.615,3.939,3.939,0,0,1,2.685.928,5.507,5.507,0,0,1,1.582,2.578,12.855,12.855,0,0,1,.518,3.838v0.41a8.543,8.543,0,0,1-1.162,4.717,3.977,3.977,0,0,1-3.584,1.787A4.763,4.763,0,0,1,306.507,102.514Z"/>
  <path id="SPB_Global" data-name="SPB Global" class="cls-1" d="M28.391,52.329a14.485,14.485,0,0,0,6.289-4.8A12,12,0,0,0,36.919,40.3a12.5,12.5,0,0,0-4.17-9.673q-4.17-3.794-12.27-5.947a40.3,40.3,0,0,1-6.289-2.307,8.628,8.628,0,0,1-3.315-2.546,5.532,5.532,0,0,1-.991-3.281,6.147,6.147,0,0,1,1.128-3.708,7.315,7.315,0,0,1,3.11-2.41A11.488,11.488,0,0,1,18.7,9.57a17.767,17.767,0,0,1,5.281.7,13.086,13.086,0,0,1,3.64,1.692l1.23,6.973h6.528V8.237a23.479,23.479,0,0,0-7.195-3.931,28.272,28.272,0,0,0-9.792-1.436A21.5,21.5,0,0,0,9.472,4.683,14.705,14.705,0,0,0,3.44,9.536a11.962,11.962,0,0,0-2.17,7.075,11.993,11.993,0,0,0,1.9,6.768A15.476,15.476,0,0,0,8.806,28.3a42.62,42.62,0,0,0,9.314,3.555,28.212,28.212,0,0,1,6.016,2.239,8.31,8.31,0,0,1,3.179,2.752,6.529,6.529,0,0,1,.957,3.52,6.36,6.36,0,0,1-1.094,3.726,7.074,7.074,0,0,1-3.162,2.444,13.183,13.183,0,0,1-5.11.872,20.154,20.154,0,0,1-5.759-.786,14.839,14.839,0,0,1-4.46-2.085L7.592,37.119H0.927v11.45a28.18,28.18,0,0,0,8.511,4.2,33.978,33.978,0,0,0,9.468,1.265A24.27,24.27,0,0,0,28.391,52.329ZM62.118,53.32V48.057l-5.434-1.025V34.453h9.3a21.875,21.875,0,0,0,9.553-1.914,14.1,14.1,0,0,0,6.1-5.383,15.262,15.262,0,0,0,2.119-8.118,15.265,15.265,0,0,0-2.119-8.118,14.316,14.316,0,0,0-6.1-5.417A21.552,21.552,0,0,0,65.98,3.555H42.635v5.3L48.07,9.878V47.031l-5.435,1.025V53.32H62.118Zm-5.434-43.1h9.3q4.58,0,6.87,2.529a9.117,9.117,0,0,1,2.29,6.357,8.775,8.775,0,0,1-2.29,6.221q-2.29,2.461-6.87,2.461h-9.3V10.22Zm54.961,43.1q8.2,0,12.8-3.64t4.6-10.647a13.119,13.119,0,0,0-1.077-5.349,11.236,11.236,0,0,0-3.127-4.153,11.579,11.579,0,0,0-5.059-2.358,11.454,11.454,0,0,0,5.4-3.982,10.069,10.069,0,0,0,1.949-6.067q0-6.768-4.7-10.168t-13.074-3.4H87.513v5.3l5.435,1.025V47.031l-5.435,1.025V53.32h24.131ZM101.561,30.728H112.5a8.988,8.988,0,0,1,4.477.991,6.162,6.162,0,0,1,2.6,2.837,10.617,10.617,0,0,1,.854,4.477,7.111,7.111,0,0,1-2.273,5.691q-2.273,1.966-6.511,1.965H101.561V30.728Zm0-20.508h7.793q4.512,0,6.836,1.795a6.536,6.536,0,0,1,2.324,5.52,6.385,6.385,0,0,1-2.187,5.161,9.043,9.043,0,0,1-6.016,1.846h-8.75V10.22Zm81.39,42.28a25.12,25.12,0,0,0,7.229-3.76V28.984H173.432V35.1l8.135,0.479v9.81a17.611,17.611,0,0,1-3.879,1.367,22.552,22.552,0,0,1-5.247.547,13.136,13.136,0,0,1-12.9-8.477,24.35,24.35,0,0,1-1.692-9.468v-1.4a24.325,24.325,0,0,1,1.761-9.622,14.937,14.937,0,0,1,4.956-6.426,12.311,12.311,0,0,1,7.4-2.307,20.174,20.174,0,0,1,5.4.649,11.489,11.489,0,0,1,3.828,1.777l1.094,6.9h6.6V8.306a22.972,22.972,0,0,0-7.657-4.05,32.749,32.749,0,0,0-9.98-1.418,20.847,20.847,0,0,0-11.553,3.2,21.407,21.407,0,0,0-7.707,8.853,29.7,29.7,0,0,0-2.752,13.142V29.36A28.485,28.485,0,0,0,152,42.229a20.726,20.726,0,0,0,7.929,8.682,23.363,23.363,0,0,0,12.339,3.127A32.511,32.511,0,0,0,182.951,52.5Zm33.5,0.82V48.057l-5.161-1.025V0H197.239V5.3l5.469,1.025V47.031l-5.161,1.025V53.32h18.9Zm30.232-1.675A15.714,15.714,0,0,0,252.542,45a22.3,22.3,0,0,0,2.05-9.792V34.487a22.187,22.187,0,0,0-2.05-9.775,15.817,15.817,0,0,0-5.879-6.648,16.843,16.843,0,0,0-9.16-2.41,16.622,16.622,0,0,0-9.092,2.427,15.92,15.92,0,0,0-5.879,6.665,22.1,22.1,0,0,0-2.051,9.741v0.718A22.3,22.3,0,0,0,222.532,45a15.666,15.666,0,0,0,5.879,6.648A18.633,18.633,0,0,0,246.68,51.646ZM232.8,45.852a9.066,9.066,0,0,1-2.8-4.307,20.265,20.265,0,0,1-.906-6.34V34.487A19.986,19.986,0,0,1,230,28.2a9.24,9.24,0,0,1,2.786-4.307,7.1,7.1,0,0,1,4.717-1.572,7.21,7.21,0,0,1,4.785,1.572,9.357,9.357,0,0,1,2.8,4.307,19.628,19.628,0,0,1,.923,6.289v0.718a19.9,19.9,0,0,1-.923,6.34,9.3,9.3,0,0,1-2.785,4.307,7.135,7.135,0,0,1-4.734,1.555A7.272,7.272,0,0,1,232.8,45.852Zm56.08,5.947a13.992,13.992,0,0,0,4.854-6.306,24.743,24.743,0,0,0,1.675-9.468V35.308a29.128,29.128,0,0,0-1.675-10.356A15.257,15.257,0,0,0,288.9,18.1a12.23,12.23,0,0,0-7.708-2.444,12.5,12.5,0,0,0-5.691,1.23,11.181,11.181,0,0,0-4.119,3.589V0H257.37V5.3L262.8,6.323v47h7.417l0.684-4.614a11.715,11.715,0,0,0,4.238,3.965,12.482,12.482,0,0,0,6.016,1.367A13.07,13.07,0,0,0,288.883,51.8ZM274.34,46.091a8.464,8.464,0,0,1-2.957-3.23V27.07a8.966,8.966,0,0,1,2.923-3.367,7.665,7.665,0,0,1,4.426-1.248,6.612,6.612,0,0,1,4.58,1.589,9.428,9.428,0,0,1,2.632,4.477,24.056,24.056,0,0,1,.855,6.785v0.718q0,5.229-1.932,8.22T278.7,47.236A8.039,8.039,0,0,1,274.34,46.091Zm44.989,6.46a15.293,15.293,0,0,0,4.461-3.811A17.381,17.381,0,0,0,324.217,51q0.29,1.128.632,2.324h11.245V48.057l-3.759-.479q-0.069-.683-0.086-1.4t-0.017-1.47V28.4q0-6.152-4.05-9.451t-11.092-3.3a25.011,25.011,0,0,0-7.451,1.043,24.43,24.43,0,0,0-6.084,2.82l0.069,9.126h6.323l0.786-4.99a8.907,8.907,0,0,1,2.632-1.316,11.3,11.3,0,0,1,3.384-.461,6.963,6.963,0,0,1,5.11,1.743,6.3,6.3,0,0,1,1.76,4.683v3.11h-5.64a23.99,23.99,0,0,0-8.955,1.487,12.455,12.455,0,0,0-5.605,4.119,10.121,10.121,0,0,0-1.914,6.118,10.347,10.347,0,0,0,3.144,8q3.144,2.905,8.784,2.905A11.714,11.714,0,0,0,319.329,52.551Zm-7.878-6.34a4.109,4.109,0,0,1-1.367-3.315,5.508,5.508,0,0,1,1.965-4.187q1.965-1.794,5.828-1.794h5.742V43.1a8.624,8.624,0,0,1-3.384,3.059,10.087,10.087,0,0,1-4.853,1.213A5.905,5.905,0,0,1,311.451,46.211Zm47.3,7.109V48.057l-5.162-1.025V0H339.547V5.3l5.468,1.025V47.031l-5.161,1.025V53.32h18.9Z"/>
</svg>
