<?xml version="1.0" encoding="UTF-8" standalone="no"?>
<svg
   width="600"
   height="150"
   viewBox="0 0 600 150"
   version="1.1"
   id="svg2107"
   sodipodi:docname="snap.svg"
   inkscape:version="1.1 (c68e22c387, 2021-05-23)"
   xmlns:inkscape="http://www.inkscape.org/namespaces/inkscape"
   xmlns:sodipodi="http://sodipodi.sourceforge.net/DTD/sodipodi-0.dtd"
   xmlns="http://www.w3.org/2000/svg"
   xmlns:svg="http://www.w3.org/2000/svg">
  <defs
     id="defs2111" />
  <sodipodi:namedview
     id="namedview2109"
     pagecolor="#ffffff"
     bordercolor="#666666"
     borderopacity="1.0"
     inkscape:pageshadow="2"
     inkscape:pageopacity="0.0"
     inkscape:pagecheckerboard="0"
     showgrid="false"
     width="600px"
     showguides="true"
     inkscape:guide-bbox="true"
     inkscape:zoom="0.79003293"
     inkscape:cx="239.86342"
     inkscape:cy="32.277136"
     inkscape:window-width="1920"
     inkscape:window-height="1051"
     inkscape:window-x="-9"
     inkscape:window-y="-9"
     inkscape:window-maximized="1"
     inkscape:current-layer="g2294" />
  <g
     fill="#221f20"
     fill-rule="evenodd"
     id="g2105">
    <g
       id="g2294"
       transform="translate(0,3.7286648)">
      <path
         id="path2103"
         style="stroke-width:6.7504;fill:#4d4d4d;fill-opacity:1"
         d="m 287.9024,100.28128 c 10.9829,0 14.98589,-15.289651 14.98589,-25.381498 0,-10.692633 -4.45526,-24.942726 -15.43141,-24.942726 -9.95009,0 -9.95009,10.247106 -9.95009,13.35904 0,3.415702 0.15526,20.041936 0.15526,23.754656 0,4.752281 0,13.210528 10.24035,13.210528 z M 253.01634,65.098202 c 0.27001,-11.340671 -1.35008,-14.01383 -6.41288,-15.411162 a 2.8689198,2.8689198 0 0 1 -2.05212,-2.781165 v -0.742544 a 2.8351678,2.8351678 0 0 1 2.51115,-2.828417 c 10.02434,-1.073314 20.62922,-3.807225 25.84728,-5.224809 a 2.8149166,2.8149166 0 0 1 3.5102,2.160127 c 0.15526,0.688541 0.31052,1.532341 0.49953,2.592154 a 2.8419182,2.8419182 0 0 0 4.29326,1.944115 c 5.82559,-3.732971 11.57018,-5.683836 18.86061,-5.683836 17.96282,0 29.09422,15.438163 29.09422,31.767379 0,22.411327 -15.88369,38.004746 -34.43378,38.004746 -5.69059,0 -9.83534,-1.45133 -12.70425,-2.99717 a 2.8486686,2.8486686 0 0 0 -4.219,2.48414 v 17.13252 c 0,5.74459 0.35102,10.17285 6.49388,11.21241 a 2.8081662,2.8081662 0 0 1 2.26138,2.79467 2.8486686,2.8486686 0 0 1 -2.91617,2.84866 1016.3266,1016.3266 0 0 0 -22.0198,-0.37127 c -5.58258,0 -9.19405,0.10126 -13.94633,0.30377 a 2.8486686,2.8486686 0 0 1 -2.98367,-2.83517 v -0.37127 c 0,-1.37708 0.95855,-2.6124 2.32213,-2.84192 5.52183,-0.94505 5.99436,-3.98273 5.99436,-8.21523 0.14851,-2.82167 0.14851,-11.57694 0.14851,-14.84413 z m 153.8416,42.905538 c -6.0281,-0.44553 -9.97034,-0.44553 -25.75952,-0.44553 -8.64051,0 -12.08997,0.10126 -17.14602,0.45903 a 3.3887005,3.3887005 0 0 1 -0.74254,-6.7234 c 8.32324,-1.16782 8.68101,-4.171743 8.68101,-22.985107 V 31.10319 c -0.14851,-11.279918 -0.29026,-14.69562 -1.33658,-16.774743 -1.12056,-2.632655 -2.88242,-3.253692 -7.41869,-4.009737 a 3.3751997,3.3751997 0 0 1 -2.82166,-3.3279469 c 0,-2.079123 1.56609,-3.5979629 3.4697,-3.5439597 8.3435,0.2227632 16.69374,0.33752 25.03048,0.33752 8.3705,0 13.73707,-0.1822608 18.34084,-0.33752 a 3.3764366,3.3764366 0 0 1 0.55353,6.7301486 c -8.79577,1.100315 -8.79577,3.766723 -8.79577,23.450887 l 0.14851,46.017473 c 0.29702,15.593423 0.44553,16.484476 2.22763,18.853866 1.26908,1.498589 3.26045,2.288382 6.31163,2.700162 a 3.3751997,3.3751997 0 0 1 2.88917,3.34145 3.4022013,3.4022013 0 0 1 -3.63172,3.46295 z m 4.71178,-3.22669 c 0,-1.47834 1.05981,-2.73391 2.5044,-2.97693 2.24113,-0.37127 4.95479,-1.33658 5.36657,-4.185244 0.44552,-3.422453 0.44552,-12.32623 0.44552,-14.553861 0,-5.197808 -0.14851,-13.656059 -0.14851,-18.853866 0,-7.452441 -2.49764,-9.497812 -6.00785,-10.490121 a 3.0039278,3.0039278 0 0 1 -2.16013,-2.895921 v -0.351021 c 0,-1.478337 1.05981,-2.720411 2.5179,-2.970176 7.39169,-1.296076 18.5636,-4.455263 24.43645,-6.480383 a 3.0106782,3.0106782 0 0 1 3.84772,1.910363 c 0.12151,0.391523 0.23627,0.762795 0.33752,1.147568 a 3.0174286,3.0174286 0 0 0 4.44852,1.755104 c 5.60283,-3.253693 10.91539,-5.670336 18.74586,-5.670336 5.63658,0 11.27991,1.485088 15.88369,4.745531 7.23642,5.022297 8.4515,12.690751 9.04553,20.811481 0.0135,0.081 0.0135,0.16201 0.0135,0.243015 V 78.75426 c 0,2.227632 -0.29702,13.804567 -0.29702,16.335966 0,3.753223 1.01256,6.041604 5.92686,6.952914 a 2.9836766,2.9836766 0 0 1 2.38289,2.96342 3.0106782,3.0106782 0 0 1 -3.21319,3.01068 c -4.19875,-0.28352 -10.55763,-0.46578 -20.987,-0.46578 -5.89309,0 -9.13329,0.16201 -12.15071,0.42528 a 3.0174286,3.0174286 0 0 1 -3.28745,-3.00393 v -0.63454 c 0,-1.35683 0.9113,-2.5584 2.22763,-2.90267 4.34051,-1.17457 4.88054,-3.24694 4.75228,-12.285725 L 465.90369,65.989254 C 465.74843,58.867583 465.45816,50.6996 455.80509,50.6996 c -4.01649,0 -7.13517,1.471587 -10.13235,3.732971 a 3.0444302,3.0444302 0 0 0 -1.23532,2.524649 c 0.23626,7.43894 0.23626,28.55419 0.23626,35.15608 0,6.811153 1.17457,8.69451 4.80628,9.65307 1.29608,0.33752 2.17363,1.55259 2.17363,2.89592 v 0.39153 a 3.0174286,3.0174286 0 0 1 -3.20644,3.01742 c -5.04255,-0.31726 -11.52293,-0.51978 -23.6669,-0.51978 -4.67127,0 -7.38493,0.14851 -9.91633,0.39153 a 3.0106782,3.0106782 0 0 1 -3.2942,-3.01068 z M 565.99861,91.856785 c 1.86311,1.35008 2.11962,4.077241 0.48603,5.697337 a 44.167864,44.167864 0 0 1 -30.76157,12.825758 c -21.23001,0 -36.81668,-14.702369 -36.81668,-34.892814 0,-21.223255 18.11132,-34.879314 40.23238,-34.879314 14.54711,0 28.35168,6.379128 28.35168,17.071761 0,5.042548 -4.30001,9.349303 -9.34931,9.349303 -2.22763,0 -4.90079,-1.039562 -6.53438,-2.673158 -1.33658,-1.188071 -1.6336,-1.930615 -4.45527,-8.309742 -1.33658,-2.821667 -4.30675,-7.870966 -8.90377,-7.870966 -8.61351,0 -10.98965,14.69562 -10.98965,21.97255 0,16.774743 9.50456,28.054661 19.89342,28.054661 5.52183,0 10.09185,-2.538151 14.14884,-6.102362 a 3.7667229,3.7667229 0 0 1 4.69828,-0.243014 m 20.50096,-8.201735 c 7.27693,0 13.5008,5.791842 13.5008,13.507549 0,7.573951 -6.22387,13.365791 -13.35229,13.365791 A 13.230783,13.230783 0 0 1 573.28229,97.459617 c 0,-9.200795 7.12842,-13.804567 13.21728,-13.804567 M 1.7597201,105.6276 C 1.6652145,96.150039 0.84841616,85.194141 0.01811703,76.816895 A 3.4629549,3.4629549 0 0 1 2.94104,73.043422 l 0.135008,-0.02025 a 3.4967069,3.4967069 0 0 1 3.9152317,2.565151 40.434893,40.434893 0 0 0 5.0087963,11.927956 c 2.079123,3.267194 9.356054,14.547111 24.638958,14.547111 11.138159,0 19.306143,-7.870966 19.306143,-17.821054 0,-9.194045 -7.42544,-12.906764 -21.972551,-18.401589 C 29.672622,64.05864 25.217358,62.431794 20.910603,60.50118 14.970252,57.672762 1.0104257,51.145126 1.0104257,33.027054 c 0,-20.176944 16.1874583,-32.0576472 36.8234293,-32.0576472 5.008796,0 12.137218,0.7020415 19.279141,3.9827357 1.579593,0.7222927 3.442703,0.1620096 4.374258,-1.2960767 l 1.18132,-1.8631103 a 3.4764557,3.4764557 0 0 1 2.848669,-1.62009583 3.5034573,3.5034573 0 0 1 3.577712,3.24019173 376.67229,376.67229 0 0 0 2.821667,25.2667456 3.4967069,3.4967069 0 1 1 -6.709897,1.721351 C 63.343614,25.480107 62.290552,23.178221 60.245181,20.11354 55.351141,13.437395 48.816755,8.8403726 40.655522,8.8403726 c -10.544124,0 -16.774743,8.6000084 -16.774743,15.5799224 0,8.012724 7.121672,11.428426 10.240356,12.913514 6.385878,3.118684 13.062023,5.197807 19.744918,7.870965 10.685883,4.158247 25.381502,10.544124 25.381502,30.140534 0,19.292642 -15.438163,35.473352 -39.928612,35.473352 -12.170971,0 -20.10269,-3.84773 -24.706462,-6.77065 a 3.4697053,3.4697053 0 0 0 -4.8197856,1.14756 l -1.3163279,2.17363 a 3.4967069,3.4967069 0 0 1 -2.7136605,1.6606 l -0.2497648,0.0203 a 3.4697053,3.4697053 0 0 1 -3.7532221,-3.4225 m 80.7482779,-0.85055 c 0,-1.47834 1.059813,-2.73391 2.504399,-2.97693 2.241132,-0.37127 4.954793,-1.33658 5.366567,-4.185244 0.445527,-3.422453 0.445527,-12.32623 0.445527,-14.553861 0,-5.197808 -0.148509,-13.656059 -0.148509,-18.853866 0,-7.452441 -2.497648,-9.497812 -6.007856,-10.490121 a 3.0039278,3.0039278 0 0 1 -2.160128,-2.895921 v -0.351021 c 0,-1.478337 1.066564,-2.720411 2.517899,-2.970176 7.391688,-1.296076 18.570353,-4.455263 24.436443,-6.480383 a 3.0106782,3.0106782 0 0 1 3.84773,1.910363 c 0.12151,0.391523 0.23627,0.762795 0.33752,1.147568 a 3.0174286,3.0174286 0 0 0 4.45526,1.755104 c 5.60284,-3.253693 10.9154,-5.670336 18.73911,-5.670336 5.64334,0 11.28667,1.485088 15.89044,4.745531 7.22968,5.022297 8.438,12.690751 9.04554,20.811481 V 78.75426 c 0,2.227632 -0.29027,13.804567 -0.29027,16.335966 0,3.753223 1.01931,6.041604 5.92685,6.952914 a 2.9836766,2.9836766 0 0 1 2.38289,2.96342 3.0106782,3.0106782 0 0 1 -3.20644,3.01068 c -4.20549,-0.28352 -10.55762,-0.46578 -20.99374,-0.46578 -5.88635,0 -9.13329,0.16201 -12.15072,0.42528 a 3.0174286,3.0174286 0 0 1 -3.28744,-3.00393 v -0.63454 c 0,-1.35683 0.9113,-2.5584 2.22763,-2.90267 4.34051,-1.17457 4.88054,-3.24694 4.75228,-12.285725 L 136.84196,65.989254 C 136.69345,58.867583 136.39644,50.6996 126.74337,50.6996 c -4.01649,0 -7.12843,1.471587 -10.1256,3.732971 a 3.0444302,3.0444302 0 0 0 -1.24208,2.524649 c 0.23627,7.43894 0.23627,28.55419 0.23627,35.15608 0,6.811153 1.18132,8.69451 4.80628,9.65307 1.29608,0.33752 2.17363,1.55259 2.17363,2.89592 v 0.39153 a 3.0174286,3.0174286 0 0 1 -3.20644,3.01742 c -5.04255,-0.31726 -11.52293,-0.51978 -23.6669,-0.51978 -4.671276,0 -7.384937,0.14851 -9.916337,0.39153 a 3.0106782,3.0106782 0 0 1 -3.294195,-3.01068 z M 211.81865,80.057087 a 3.0174286,3.0174286 0 0 0 -3.78022,-2.902672 c -5.0088,1.269075 -11.65794,4.191998 -11.65794,11.99546 0,4.009737 2.07912,8.45825 7.72245,8.45825 2.87567,0 4.59028,-0.870801 6.39263,-2.058871 a 2.9971774,2.9971774 0 0 0 1.32308,-2.497648 z m 34.30553,17.173016 a 3.0174286,3.0174286 0 0 1 0.27677,4.455267 c -7.13518,7.22292 -14.20959,8.69451 -18.10457,8.69451 a 19.238638,19.238638 0 0 1 -11.13141,-3.71272 16.099703,16.099703 0 0 1 -2.75417,-2.83517 2.9701758,2.9701758 0 0 0 -4.00973,-0.68854 c -4.084,2.65291 -12.51524,7.37819 -21.8848,7.37819 -13.66281,0 -16.92325,-9.20079 -16.92325,-14.68887 0,-16.963753 26.10379,-24.058423 37.92374,-26.178049 a 2.9971774,2.9971774 0 0 0 2.45715,-2.943174 c 0.0135,-4.590272 0.0203,-9.990591 -0.60079,-11.853701 -1.7821,-5.197808 -7.7157,-5.197808 -8.45825,-5.197808 -4.90079,0 -7.57394,2.970176 -8.465,6.237369 -0.44552,1.930614 -0.44552,4.009737 -0.89105,5.940352 -1.18807,5.042548 -5.34632,6.973162 -9.05229,6.973162 -4.60377,0 -8.91052,-2.970175 -8.91052,-8.45825 0,-10.98965 20.33895,-19.900178 38.74729,-19.900178 12.76501,0 22.11431,4.158246 22.11431,16.484476 l -0.29027,33.103959 c -0.14851,2.524649 -0.30377,8.302991 3.55746,8.302991 0.95856,0 1.86311,-0.49953 2.71366,-1.161069 a 2.990427,2.990427 0 0 1 3.68572,0.04725 z" />
    </g>
  </g>
</svg>
