<?xml version="1.0" encoding="UTF-8" standalone="no"?>
<!-- Generator: Adobe Illustrator 13.0.1, SVG Export Plug-In . SVG Version: 6.00 Build 14948)  -->

<svg
   version="1.1"
   id="Layer_1"
   x="0px"
   y="0px"
   width="600"
   height="150"
   viewBox="0 0 599.99998 150"
   enable-background="new 0 0 331.644 40.825"
   xml:space="preserve"
   sodipodi:docname="spacex.svg"
   inkscape:version="1.1 (c68e22c387, 2021-05-23)"
   xmlns:inkscape="http://www.inkscape.org/namespaces/inkscape"
   xmlns:sodipodi="http://sodipodi.sourceforge.net/DTD/sodipodi-0.dtd"
   xmlns="http://www.w3.org/2000/svg"
   xmlns:svg="http://www.w3.org/2000/svg"><defs
   id="defs2621" /><sodipodi:namedview
   id="namedview2619"
   pagecolor="#ffffff"
   bordercolor="#666666"
   borderopacity="1.0"
   inkscape:pageshadow="2"
   inkscape:pageopacity="0.0"
   inkscape:pagecheckerboard="0"
   showgrid="false"
   width="600px"
   inkscape:zoom="1.6961061"
   inkscape:cx="332.82115"
   inkscape:cy="136.4891"
   inkscape:window-width="1920"
   inkscape:window-height="1051"
   inkscape:window-x="-9"
   inkscape:window-y="-9"
   inkscape:window-maximized="1"
   inkscape:current-layer="g2616" />
<g
   id="g2616"
   transform="matrix(1.8091702,0,0,1.8091702,-1.964328e-4,38.070313)">
	<path
   fill="#005288"
   d="M 77.292,15.094 H 49.249 l -1.039,0.777 v 24.947 h 7.763 v -9.355 l 0.741,-0.664 h 20.579 c 5.196,0 7.632,-1.398 7.632,-4.985 v -5.728 c -10e-4,-3.593 -2.436,-4.992 -7.633,-4.992 m 0,9.223 c 0,1.69 -1.118,2.041 -3.554,2.041 H 56.799 L 55.972,25.554 V 20.21 l 0.741,-0.678 h 17.025 c 2.436,0 3.554,0.347 3.554,2.045 z"
   id="path2598"
   style="fill:#4d4d4d;fill-opacity:1" />
	<polyline
   fill="#005288"
   points="99.081,19.813 105.761,29.6 105.391,30.548 90.618,30.548 86.847,35.187 108.837,35.187 110.361,36.115 113.775,40.824 122.659,40.824 103.186,14.775"
   id="polyline2600"
   style="fill:#4d4d4d;fill-opacity:1" />
	<polyline
   fill="#005288"
   points="187.418,35.757 187.418,28.833 188.217,28.143 203.079,28.143 203.079,23.734 179.524,23.734 179.524,40.823 214.27,40.823 214.27,36.435 188.252,36.435"
   id="polyline2602"
   style="fill:#4d4d4d;fill-opacity:1" />
	<rect
   x="179.524"
   y="15.094"
   fill="#005288"
   width="35.112999"
   height="4.848"
   id="rect2604"
   style="fill:#4d4d4d;fill-opacity:1" />
	<path
   fill="#005288"
   d="m 140.361,19.685 h 28.288 c -0.436,-3.597 -2.668,-4.595 -8.33,-4.595 H 140.06 c -6.389,0 -8.427,1.247 -8.427,6.082 v 13.565 c 0,4.84 2.038,6.087 8.427,6.087 h 20.259 c 5.745,0 7.945,-1.079 8.095,-4.81 h -28.053 l -0.832,-0.783 V 20.209"
   id="path2606"
   style="fill:#4d4d4d;fill-opacity:1" />
	<path
   fill="#005288"
   d="M 29.333,25.118 H 8.754 L 8.148,24.451 v -4.402 l 0.603,-0.466 h 27.742 l 0.379,-0.927 C 35.927,16.225 33.48,15.091 28.936,15.091 H 9.665 c -6.385,0 -8.426,1.247 -8.426,6.082 v 2.844 c 0,4.841 2.041,6.086 8.426,6.086 h 20.533 l 0.645,0.566 v 4.602 l -0.526,0.718 H 6.83 V 35.967 H 0.678 c 0,0 -0.704,0.353 -0.677,0.518 0.525,3.382 2.829,4.34 8.345,4.34 h 20.987 c 6.384,0 8.486,-1.247 8.486,-6.087 v -3.543 c 0,-4.832 -2.102,-6.077 -8.486,-6.077"
   id="path2608"
   style="fill:#4d4d4d;fill-opacity:1" />
	<path
   fill="#005288"
   d="m 236.725,14.988 h -11.551 l -0.627,1.193 12.828,9.351 c 2.43,-1.407 5.074,-2.833 7.95,-4.24"
   id="path2610"
   style="fill:#4d4d4d;fill-opacity:1" />
	<path
   fill="#005288"
   d="m 247.075,32.603 11.275,8.222 h 11.692 l 0.484,-1.089 -16.836,-12.323 c -2.236,1.641 -4.445,3.374 -6.615,5.19"
   id="path2612"
   style="fill:#4d4d4d;fill-opacity:1" />
	<path
   fill="#a7a9ac"
   d="m 235.006,40.806 h -10.451 l -0.883,-1.383 C 230.778,32.562 262.56,3.151 331.644,0 c 0,0 -57.986,1.956 -96.638,40.806"
   id="path2614"
   style="fill:#4d4d4d;fill-opacity:1" />
</g>
</svg>
