<?xml version="1.0" encoding="UTF-8" standalone="no"?>
<svg
   class="SVGInline-svg logoLink__header__aMlP0-svg"
   width="600"
   height="150"
   viewBox="0 0 600 150"
   version="1.1"
   id="svg2984"
   sodipodi:docname="wework.svg"
   inkscape:version="1.1 (c68e22c387, 2021-05-23)"
   xmlns:inkscape="http://www.inkscape.org/namespaces/inkscape"
   xmlns:sodipodi="http://sodipodi.sourceforge.net/DTD/sodipodi-0.dtd"
   xmlns="http://www.w3.org/2000/svg"
   xmlns:svg="http://www.w3.org/2000/svg"
   xmlns:rdf="http://www.w3.org/1999/02/22-rdf-syntax-ns#"
   xmlns:cc="http://creativecommons.org/ns#"
   xmlns:dc="http://purl.org/dc/elements/1.1/">
  <defs
     id="defs2988" />
  <sodipodi:namedview
     id="namedview2986"
     pagecolor="#ffffff"
     bordercolor="#666666"
     borderopacity="1.0"
     inkscape:pageshadow="2"
     inkscape:pageopacity="0.0"
     inkscape:pagecheckerboard="0"
     showgrid="false"
     width="600px"
     inkscape:zoom="1.4960198"
     inkscape:cx="335.22284"
     inkscape:cy="174.79715"
     inkscape:window-width="1920"
     inkscape:window-height="1051"
     inkscape:window-x="-9"
     inkscape:window-y="-9"
     inkscape:window-maximized="1"
     inkscape:current-layer="svg2984" />
  <style
     id="style2966">.a{fill:none}.b{fill:currentColor}</style>
  <title
     id="title2968">WeWork logo</title>
  <g
     class="a"
     id="g2982"
     transform="matrix(6.4387391,0,0,6.4387391,0.00152072,10.8605)"
     style="fill:#4d4d4d;fill-opacity:1">
    <g
       class="b"
       id="g2980"
       style="fill:#4d4d4d;fill-opacity:1">
      <path
         d="m 7.892,9.635 c 0.574,0 1.075,0.02 1.519,0.101 0.632,0.111 1.167,0.992 1.167,1.422 0,0.22 0,0.464 -0.096,0.82 -0.156,0.546 -1.228,2.51 -1.674,3.249 C 8.271,14.356 7.007,11.896 6.57,10.938 6.38,10.536 6.284,10.202 6.284,10.038 c 0,-0.302 0.6,-0.403 1.608,-0.403 z m -7.163,0 c 0.536,0.133 0.85,0.244 1.29,1.032 1.549,2.843 3.1,5.977 4.609,9.06 0.19,0.16 0.412,0.196 0.733,0.196 0.31,0 0.53,-0.036 0.728,-0.195 0.719,-1.357 2.616,-4.999 3.434,-6.413 0.952,1.748 2.591,4.938 3.256,6.413 0.184,0.16 0.412,0.195 0.723,0.195 0.315,0 0.542,-0.036 0.725,-0.195 a 194.65,194.65 0 0 1 4.233,-8.684 c 0.506,-1.006 0.725,-1.276 1.768,-1.47 L 22.67,9.496 c 0.252,-0.253 0.187,-0.846 -0.093,-0.96 -0.695,0.055 -1.515,0.083 -2.436,0.083 -0.788,0 -1.54,-0.028 -2.586,-0.083 -0.316,0.114 -0.316,0.765 -0.123,0.96 l 0.532,0.103 c 0.543,0.111 0.791,0.248 0.791,0.387 0,0.191 -0.096,0.573 -0.292,1.058 -0.499,1.263 -0.994,2.602 -1.761,4.183 -0.692,-1.314 -1.574,-3.084 -2.146,-4.396 -0.186,-0.461 -0.25,-0.63 -0.25,-0.845 0,-0.139 0.437,-0.276 1.168,-0.412 l 0.47,-0.078 C 16.172,9.385 16.196,8.569 15.85,8.536 A 190.76,190.76 0 0 1 10.262,8.619 H 3.885 C 2.559,8.619 1.551,8.591 0.257,8.536 -0.066,8.673 -0.066,9.273 0.153,9.496 Z"
         id="path2970"
         style="fill:#4d4d4d;fill-opacity:1" />
      <path
         d="m 27.101,9.46 c 1.069,0 1.673,0.595 1.673,1.498 0,0.274 -0.063,0.55 -0.22,0.628 -0.353,0.192 -0.857,0.243 -1.298,0.243 H 26.09 c -1.016,0 -1.452,-0.02 -1.452,-0.407 0,-0.876 1.137,-1.963 2.464,-1.963 z m -0.033,10.426 c 1.893,0 4.236,-0.793 5.527,-3.112 0,-0.465 -0.479,-0.685 -0.822,-0.634 -0.853,1.261 -2.057,1.42 -2.938,1.42 -2.934,0 -4.454,-1.989 -4.454,-4.036 0,-0.436 0.066,-0.49 0.794,-0.49 h 6.055 c 0.986,0 1.14,-0.382 1.14,-0.9 0,-2.105 -1.77,-3.933 -5.054,-3.933 -3.94,0 -6.814,2.677 -6.814,6.118 0,2.975 2.305,5.567 6.566,5.567 z M 40.435,9.635 c 0.577,0 1.078,0.02 1.522,0.101 0.632,0.111 1.168,0.992 1.168,1.422 0,0.22 0,0.464 -0.094,0.82 -0.162,0.546 -1.233,2.51 -1.673,3.249 -0.543,-0.871 -1.8,-3.331 -2.242,-4.289 -0.186,-0.402 -0.285,-0.736 -0.285,-0.9 0,-0.302 0.596,-0.403 1.604,-0.403 z m -7.162,0 c 0.541,0.133 0.852,0.244 1.294,1.032 1.544,2.843 3.099,5.977 4.61,9.06 0.192,0.16 0.412,0.196 0.728,0.196 0.313,0 0.53,-0.036 0.724,-0.195 0.73,-1.357 2.62,-4.999 3.443,-6.413 0.95,1.748 2.584,4.938 3.249,6.413 0.19,0.16 0.41,0.195 0.724,0.195 0.319,0 0.541,-0.036 0.728,-0.195 a 197.175,197.175 0 0 1 4.235,-8.684 c 0.505,-1.006 0.723,-1.276 1.764,-1.47 L 55.218,9.496 C 55.467,9.243 55.401,8.65 55.121,8.536 54.423,8.591 53.607,8.619 52.687,8.619 A 47.38,47.38 0 0 1 50.101,8.536 c -0.32,0.114 -0.32,0.765 -0.126,0.96 l 0.536,0.103 c 0.538,0.111 0.788,0.248 0.788,0.387 0,0.191 -0.095,0.573 -0.281,1.058 -0.507,1.263 -1.013,2.602 -1.773,4.183 -0.692,-1.314 -1.574,-3.084 -2.142,-4.396 -0.192,-0.461 -0.255,-0.63 -0.255,-0.845 0,-0.139 0.439,-0.276 1.17,-0.412 l 0.47,-0.078 C 48.71,9.385 48.743,8.569 48.394,8.536 46.376,8.591 44.792,8.619 42.806,8.619 H 36.428 A 78.88,78.88 0 0 1 32.8,8.536 c -0.313,0.137 -0.313,0.737 -0.093,0.96 z"
         id="path2972"
         style="fill:#4d4d4d;fill-opacity:1" />
      <path
         d="m 60.302,9.46 c 1.793,0 2.678,2.288 2.713,4.94 0.027,2.458 -0.576,4.231 -2.377,4.231 -1.823,0 -2.87,-2.106 -2.87,-4.968 0,-2.972 1.143,-4.204 2.534,-4.204 z m 0,10.426 c 3.878,0 7.259,-1.882 7.259,-5.873 0,-3.848 -3.352,-5.812 -7.074,-5.812 -3.727,0 -7.295,2.155 -7.265,6.062 0.037,3.764 3.316,5.623 7.08,5.623 z"
         id="path2974"
         style="fill:#4d4d4d;fill-opacity:1" />
      <path
         d="m 72.94,10.514 c 0.195,0 0.475,0.03 1.198,0.546 0.405,0.33 0.785,0.494 1.23,0.494 1.008,0 2.023,-0.518 2.023,-1.775 0,-1.031 -0.884,-1.61 -1.743,-1.61 -1.321,0 -2.233,0.9 -3.091,1.362 -0.25,-0.05 -0.316,-0.133 -0.316,-0.326 0,-0.244 0.065,-0.623 0.123,-1.174 -0.123,-0.162 -0.317,-0.249 -0.56,-0.249 -0.983,0.554 -3.16,1.287 -4.617,1.646 -0.22,0.16 -0.22,0.652 0,0.817 l 0.45,0.246 c 0.597,0.328 0.597,0.654 0.597,1.748 v 4.12 c 0,1.91 -0.127,2.155 -1.17,2.241 l -0.601,0.05 c -0.254,0.164 -0.254,0.796 0.033,0.96 a 71.299,71.299 0 0 1 3.727,-0.084 c 1.48,0 2.746,0.024 4.263,0.083 0.284,-0.163 0.284,-0.795 0.029,-0.959 l -1.01,-0.076 c -1.042,-0.087 -1.17,-0.306 -1.17,-2.215 v -4.203 c 0,-1.036 0.16,-1.642 0.606,-1.642"
         id="path2976"
         style="fill:#4d4d4d;fill-opacity:1" />
      <path
         d="m 85.328,18.56 -0.409,0.085 c -0.256,0.245 -0.194,0.815 0.123,0.95 0.884,-0.054 2.017,-0.08 3.888,-0.08 1.83,0 2.996,0.026 3.972,0.08 0.317,-0.105 0.382,-0.761 0.125,-0.95 l -0.469,-0.086 c -0.819,-0.135 -1.418,-0.276 -1.86,-0.625 -0.794,-0.627 -3.573,-4.342 -4.133,-5.215 -0.163,-0.218 -0.23,-0.38 -0.23,-0.465 0,-0.08 0.033,-0.188 0.188,-0.356 0.444,-0.377 0.926,-0.794 2.121,-1.585 0.849,-0.568 1.518,-0.84 2.117,-0.952 l 1.006,-0.192 c 0.226,-0.213 0.195,-0.823 -0.128,-0.955 -1.858,0.248 -4.48,0.382 -5.966,0.382 h -0.754 c -0.315,0.114 -0.35,0.71 -0.066,0.955 l 0.792,0.114 c 0.281,0.022 0.596,0.13 0.596,0.27 0,0.164 -0.152,0.462 -0.756,1.086 l -1.322,1.346 c -0.634,0.625 -1.297,0.762 -1.834,0.762 -0.343,0 -0.445,-0.082 -0.445,-0.383 V 4.177 c 0,-1.722 0.04,-2.87 0.102,-3.987 C 81.862,0.05 81.634,0 81.446,0 c -1.614,0.595 -3.535,1.257 -4.828,1.523 -0.224,0.168 -0.224,0.661 0,0.816 l 0.536,0.28 c 0.629,0.329 0.629,0.628 0.629,1.726 v 12.004 c 0,1.91 -0.127,2.129 -1.268,2.242 l -0.6,0.054 c -0.249,0.16 -0.249,0.79 0.032,0.95 a 81.063,81.063 0 0 1 3.854,-0.08 c 1.454,0 2.778,0.026 3.793,0.08 0.28,-0.16 0.28,-0.79 0.03,-0.95 l -0.502,-0.054 c -1.11,-0.113 -1.238,-0.333 -1.238,-2.242 v -1.58 c 0,-0.523 0.16,-0.656 0.378,-0.656 0.317,0 0.571,0.11 0.796,0.402 l 2.238,2.955 c 0.253,0.324 0.535,0.76 0.535,0.878 0,0.101 -0.186,0.152 -0.503,0.211"
         id="path2978"
         style="fill:#4d4d4d;fill-opacity:1" />
    </g>
  </g>
  <metadata
     id="metadata2990">
    <rdf:RDF>
      <cc:Work
         rdf:about="">
        <dc:title>WeWork logo</dc:title>
      </cc:Work>
    </rdf:RDF>
  </metadata>
</svg>
